<svg width="150" height="150" viewBox="0 0 150 150" fill="none" xmlns="http://www.w3.org/2000/svg">
<path fill-rule="evenodd" clip-rule="evenodd" d="M121.875 83.4775H28.125V126.865C28.125 128.935 29.482 130.76 31.4648 131.356C40.8844 134.18 67.3734 142.128 73.6523 144.012C74.5312 144.274 75.4688 144.274 76.3477 144.012C82.6266 142.128 109.116 134.18 118.535 131.356C120.518 130.76 121.875 128.935 121.875 126.865C121.875 115.999 121.875 83.4775 121.875 83.4775Z" fill="#CBD5E1"/>
<path fill-rule="evenodd" clip-rule="evenodd" d="M121.874 83.4775H74.999C74.999 83.4775 74.5443 144.209 74.999 144.209C75.4536 144.209 75.906 144.143 76.3466 144.012C82.6255 142.128 109.115 134.18 118.534 131.356C120.517 130.76 121.874 128.935 121.874 126.865C121.874 115.999 121.874 83.4775 121.874 83.4775Z" fill="#E2E8F0"/>
<path fill-rule="evenodd" clip-rule="evenodd" d="M74.9993 98.6861L28.1243 83.4775C28.1243 83.4775 19.9047 95.665 16.2297 101.112C15.8172 101.724 15.7164 102.49 15.9555 103.186C16.1969 103.882 16.7477 104.424 17.4485 104.653C26.3524 107.546 52.7102 116.11 59.6243 118.355C60.6157 118.678 61.7032 118.306 62.2891 117.441C65.4321 112.803 74.9993 98.6861 74.9993 98.6861Z" fill="#E2E8F0"/>
<path fill-rule="evenodd" clip-rule="evenodd" d="M121.875 83.4775L75 98.6861C75 98.6861 84.5672 112.803 87.7102 117.441C88.2961 118.306 89.3836 118.678 90.375 118.355C97.2891 116.11 123.647 107.546 132.551 104.653C133.252 104.424 133.802 103.882 134.044 103.186C134.283 102.49 134.182 101.724 133.77 101.112C130.095 95.665 121.875 83.4775 121.875 83.4775Z" fill="#CBD5E1"/>
<path fill-rule="evenodd" clip-rule="evenodd" d="M63.6524 51.5297C63.0664 50.6696 61.9813 50.2969 60.9899 50.6204C54.0805 52.8633 27.7157 61.4297 18.8118 64.3243C18.111 64.5516 17.5578 65.093 17.3188 65.7891C17.0797 66.4852 17.1805 67.254 17.593 67.8633C20.9774 72.8836 28.1235 83.4774 28.1235 83.4774L74.9985 68.2172C74.9985 68.2172 66.5797 55.8352 63.6524 51.5297Z" fill="#E2E8F0"/>
<path fill-rule="evenodd" clip-rule="evenodd" d="M132.405 67.8633C132.818 67.254 132.919 66.4852 132.68 65.7891C132.441 65.093 131.887 64.5516 131.187 64.3243C122.283 61.4297 95.918 52.8633 89.0086 50.6204C88.0172 50.2969 86.932 50.6696 86.3461 51.5297C83.4187 55.8352 75 68.2172 75 68.2172L121.875 83.4774C121.875 83.4774 129.021 72.8836 132.405 67.8633Z" fill="#E2E8F0"/>
<path fill-rule="evenodd" clip-rule="evenodd" d="M121.875 83.477L75 68.2168L28.125 83.477L75 98.6855L121.875 83.477Z" fill="#94A3B8"/>
<path fill-rule="evenodd" clip-rule="evenodd" d="M75 98.6855V68.2168L28.125 83.477L75 98.6855Z" fill="#CBD5E1"/>
<g opacity="0.5">
<path fill-rule="evenodd" clip-rule="evenodd" d="M65.5819 74.9485C64.6069 74.311 63.728 73.6289 62.9475 72.9141C61.9959 72.0399 60.5123 72.1032 59.6358 73.0571C58.7616 74.0086 58.8248 75.4922 59.7787 76.3664C60.7373 77.2477 61.8178 78.0868 63.0178 78.8719C64.1006 79.5797 65.5537 79.275 66.2616 78.1922C66.9694 77.1094 66.6647 75.6563 65.5819 74.9485Z" fill="#07CDBE"/>
<path fill-rule="evenodd" clip-rule="evenodd" d="M58.2789 67.7482C57.5828 66.8037 56.9945 65.8545 56.5117 64.9053C55.9258 63.7521 54.5125 63.2928 53.3594 63.8787C52.2062 64.4646 51.7469 65.8779 52.3328 67.031C52.9281 68.1982 53.65 69.3678 54.5055 70.5279C55.2719 71.5685 56.739 71.7912 57.782 71.0248C58.8226 70.256 59.0453 68.7889 58.2789 67.7482Z" fill="#07CDBE"/>
<path fill-rule="evenodd" clip-rule="evenodd" d="M54.8522 58.1833C54.8757 57.2388 55.0139 56.3224 55.2671 55.4435C55.6233 54.2013 54.9038 52.9005 53.6593 52.5443C52.4171 52.188 51.1163 52.9076 50.76 54.1521C50.4014 55.4083 50.1999 56.7185 50.1647 58.0662C50.1343 59.3599 51.1561 60.4357 52.4499 60.4662C53.7436 60.499 54.8194 59.4771 54.8522 58.1833Z" fill="#07CDBE"/>
<path fill-rule="evenodd" clip-rule="evenodd" d="M58.4572 50.3552C59.0595 49.7974 59.7345 49.2818 60.4728 48.8154C61.5673 48.124 61.8955 46.6755 61.2064 45.5834C60.515 44.4888 59.0666 44.1607 57.972 44.8498C56.9806 45.4755 56.0806 46.1669 55.272 46.9169C54.3228 47.7959 54.2666 49.2794 55.1455 50.2287C56.0244 51.1779 57.508 51.2341 58.4572 50.3552Z" fill="#07CDBE"/>
<path fill-rule="evenodd" clip-rule="evenodd" d="M67.1726 46.3126C68.3515 46.0947 69.6007 45.954 70.9179 45.9001C72.2117 45.8439 73.2148 44.7493 73.1609 43.4579C73.107 42.1665 72.0125 41.1611 70.7187 41.215C69.1718 41.2806 67.7046 41.447 66.3195 41.7025C65.0492 41.9392 64.2054 43.1626 64.4421 44.4329C64.6765 45.7056 65.9 46.547 67.1726 46.3126Z" fill="#07CDBE"/>
<path fill-rule="evenodd" clip-rule="evenodd" d="M79.3881 46.1742C81.3873 46.1977 83.2482 46.1273 84.9756 45.975C86.2646 45.8602 87.2186 44.7211 87.1037 43.432C86.9889 42.1453 85.8498 41.1914 84.5607 41.3062C82.9787 41.4445 81.2748 41.5102 79.442 41.4867C78.1482 41.4727 77.0865 42.5109 77.0725 43.8023C77.0561 45.0961 78.0943 46.1602 79.3881 46.1742Z" fill="#07CDBE"/>
<path fill-rule="evenodd" clip-rule="evenodd" d="M92.6808 44.5383C95.0011 43.8282 96.9605 42.9188 98.6011 41.8758C99.691 41.1797 100.014 39.7313 99.3183 38.6391C98.6245 37.5492 97.1738 37.2258 96.0816 37.9219C94.762 38.761 93.18 39.4828 91.3097 40.0547C90.0745 40.4344 89.3761 41.7446 89.7558 42.9821C90.1331 44.2196 91.4456 44.9157 92.6808 44.5383Z" fill="#07CDBE"/>
<path fill-rule="evenodd" clip-rule="evenodd" d="M104.609 35.3151C105.715 33.0276 106.14 30.6089 106.032 28.2769C105.971 26.9831 104.872 25.9847 103.58 26.0456C102.289 26.1066 101.288 27.2034 101.349 28.4948C101.424 30.0792 101.138 31.7222 100.388 33.2761C99.8255 34.4409 100.313 35.8448 101.478 36.4073C102.643 36.9698 104.047 36.48 104.609 35.3151Z" fill="#07CDBE"/>
<path fill-rule="evenodd" clip-rule="evenodd" d="M103.117 19.9898C101.408 17.6812 99.0901 16.0734 96.5635 15.5554C95.2955 15.2976 94.0557 16.1132 93.7955 17.3812C93.5377 18.6491 94.3557 19.889 95.6213 20.1491C97.0791 20.4468 98.3635 21.4476 99.3502 22.7812C100.121 23.8195 101.591 24.0374 102.629 23.2687C103.67 22.4976 103.888 21.028 103.117 19.9898Z" fill="#07CDBE"/>
</g>
<path opacity="0.2" fill-rule="evenodd" clip-rule="evenodd" d="M72.498 16.0099C75.034 1.64978 97.0113 2.5779 84.2168 16.0099H72.498Z" fill="#07CDBE"/>
<path opacity="0.2" fill-rule="evenodd" clip-rule="evenodd" d="M72.498 19.6475C75.034 34.0053 97.0113 33.0795 84.2168 19.6475H72.498Z" fill="#07CDBE"/>
<path opacity="0.5" fill-rule="evenodd" clip-rule="evenodd" d="M72.2871 20.1963H87.9809C89.2746 20.1963 90.3246 19.1463 90.3246 17.8525C90.3246 16.5588 89.2746 15.5088 87.9809 15.5088H72.2871C70.9957 15.5088 69.9434 16.5588 69.9434 17.8525C69.9434 19.1463 70.9957 20.1963 72.2871 20.1963Z" fill="#07CDBE"/>
</svg>
